<mxfile host="app.diagrams.net" modified="2022-11-02T08:01:31.042Z" agent="5.0 (X11; Linux x86_64) AppleWebKit/537.36 (KHTML, like Gecko) Chrome/106.0.0.0 Safari/537.36" etag="BhzEVLrtpmyXfYINnsuk" version="20.5.1" type="github">
  <diagram id="I-051htrbf_xwrDDl3hf" name="第 1 页">
    <mxGraphModel dx="1422" dy="748" grid="1" gridSize="10" guides="1" tooltips="1" connect="1" arrows="1" fold="1" page="1" pageScale="1" pageWidth="827" pageHeight="1169" math="0" shadow="0">
      <root>
        <mxCell id="0" />
        <mxCell id="1" parent="0" />
        <mxCell id="H9HWOx3HG2p_Gk0_x6q3-21" style="edgeStyle=orthogonalEdgeStyle;rounded=0;orthogonalLoop=1;jettySize=auto;html=1;exitX=0.5;exitY=1;exitDx=0;exitDy=0;entryX=0.5;entryY=0;entryDx=0;entryDy=0;" edge="1" parent="1" source="H9HWOx3HG2p_Gk0_x6q3-2" target="H9HWOx3HG2p_Gk0_x6q3-4">
          <mxGeometry relative="1" as="geometry" />
        </mxCell>
        <mxCell id="H9HWOx3HG2p_Gk0_x6q3-2" value="任务配置" style="rounded=0;whiteSpace=wrap;html=1;" vertex="1" parent="1">
          <mxGeometry x="80" y="100" width="120" height="60" as="geometry" />
        </mxCell>
        <mxCell id="H9HWOx3HG2p_Gk0_x6q3-19" style="edgeStyle=orthogonalEdgeStyle;rounded=0;orthogonalLoop=1;jettySize=auto;html=1;exitX=1;exitY=0.5;exitDx=0;exitDy=0;entryX=0;entryY=0.5;entryDx=0;entryDy=0;" edge="1" parent="1" source="H9HWOx3HG2p_Gk0_x6q3-4" target="H9HWOx3HG2p_Gk0_x6q3-18">
          <mxGeometry relative="1" as="geometry" />
        </mxCell>
        <mxCell id="H9HWOx3HG2p_Gk0_x6q3-28" value="HTTPS" style="edgeLabel;html=1;align=center;verticalAlign=middle;resizable=0;points=[];" vertex="1" connectable="0" parent="H9HWOx3HG2p_Gk0_x6q3-19">
          <mxGeometry x="-0.2667" y="3" relative="1" as="geometry">
            <mxPoint x="4" y="2" as="offset" />
          </mxGeometry>
        </mxCell>
        <mxCell id="H9HWOx3HG2p_Gk0_x6q3-4" value="触发任务执行" style="rounded=0;whiteSpace=wrap;html=1;" vertex="1" parent="1">
          <mxGeometry x="80" y="210" width="120" height="60" as="geometry" />
        </mxCell>
        <mxCell id="H9HWOx3HG2p_Gk0_x6q3-27" style="edgeStyle=orthogonalEdgeStyle;rounded=0;orthogonalLoop=1;jettySize=auto;html=1;exitX=0.5;exitY=1;exitDx=0;exitDy=0;entryX=1;entryY=0.5;entryDx=0;entryDy=0;" edge="1" parent="1" source="H9HWOx3HG2p_Gk0_x6q3-18" target="H9HWOx3HG2p_Gk0_x6q3-22">
          <mxGeometry relative="1" as="geometry" />
        </mxCell>
        <mxCell id="H9HWOx3HG2p_Gk0_x6q3-29" value="HTTPS" style="edgeLabel;html=1;align=center;verticalAlign=middle;resizable=0;points=[];" vertex="1" connectable="0" parent="H9HWOx3HG2p_Gk0_x6q3-27">
          <mxGeometry x="0.2261" y="-1" relative="1" as="geometry">
            <mxPoint as="offset" />
          </mxGeometry>
        </mxCell>
        <mxCell id="H9HWOx3HG2p_Gk0_x6q3-18" value="gitee API获取数据" style="rounded=0;whiteSpace=wrap;html=1;" vertex="1" parent="1">
          <mxGeometry x="290" y="210" width="120" height="60" as="geometry" />
        </mxCell>
        <mxCell id="H9HWOx3HG2p_Gk0_x6q3-20" value="储存或者更新记录" style="rounded=0;whiteSpace=wrap;html=1;" vertex="1" parent="1">
          <mxGeometry x="510" y="210" width="120" height="60" as="geometry" />
        </mxCell>
        <mxCell id="H9HWOx3HG2p_Gk0_x6q3-23" style="edgeStyle=orthogonalEdgeStyle;rounded=0;orthogonalLoop=1;jettySize=auto;html=1;exitX=1;exitY=0.5;exitDx=0;exitDy=0;entryX=0.5;entryY=1;entryDx=0;entryDy=0;" edge="1" parent="1" source="H9HWOx3HG2p_Gk0_x6q3-22" target="H9HWOx3HG2p_Gk0_x6q3-20">
          <mxGeometry relative="1" as="geometry">
            <Array as="points">
              <mxPoint x="200" y="370" />
              <mxPoint x="570" y="370" />
            </Array>
          </mxGeometry>
        </mxCell>
        <mxCell id="H9HWOx3HG2p_Gk0_x6q3-30" value="DB" style="edgeLabel;html=1;align=center;verticalAlign=middle;resizable=0;points=[];" vertex="1" connectable="0" parent="H9HWOx3HG2p_Gk0_x6q3-23">
          <mxGeometry x="-0.2204" y="3" relative="1" as="geometry">
            <mxPoint y="2" as="offset" />
          </mxGeometry>
        </mxCell>
        <mxCell id="H9HWOx3HG2p_Gk0_x6q3-26" style="edgeStyle=orthogonalEdgeStyle;rounded=0;orthogonalLoop=1;jettySize=auto;html=1;exitX=0.5;exitY=1;exitDx=0;exitDy=0;entryX=0.5;entryY=0;entryDx=0;entryDy=0;" edge="1" parent="1" source="H9HWOx3HG2p_Gk0_x6q3-22" target="H9HWOx3HG2p_Gk0_x6q3-24">
          <mxGeometry relative="1" as="geometry" />
        </mxCell>
        <mxCell id="H9HWOx3HG2p_Gk0_x6q3-22" value="解析数据" style="rounded=0;whiteSpace=wrap;html=1;" vertex="1" parent="1">
          <mxGeometry x="80" y="320" width="120" height="60" as="geometry" />
        </mxCell>
        <mxCell id="H9HWOx3HG2p_Gk0_x6q3-24" value="记录日志" style="rounded=0;whiteSpace=wrap;html=1;" vertex="1" parent="1">
          <mxGeometry x="80" y="425" width="120" height="60" as="geometry" />
        </mxCell>
        <mxCell id="H9HWOx3HG2p_Gk0_x6q3-31" value="" style="endArrow=none;dashed=1;html=1;dashPattern=1 3;strokeWidth=2;rounded=0;" edge="1" parent="1">
          <mxGeometry width="50" height="50" relative="1" as="geometry">
            <mxPoint x="260" y="490" as="sourcePoint" />
            <mxPoint x="260" y="40" as="targetPoint" />
          </mxGeometry>
        </mxCell>
        <mxCell id="H9HWOx3HG2p_Gk0_x6q3-32" value="" style="endArrow=none;dashed=1;html=1;dashPattern=1 3;strokeWidth=2;rounded=0;" edge="1" parent="1">
          <mxGeometry width="50" height="50" relative="1" as="geometry">
            <mxPoint x="470" y="490" as="sourcePoint" />
            <mxPoint x="470" y="40" as="targetPoint" />
          </mxGeometry>
        </mxCell>
        <mxCell id="H9HWOx3HG2p_Gk0_x6q3-33" value="数据库" style="text;html=1;align=center;verticalAlign=middle;resizable=0;points=[];autosize=1;strokeColor=none;fillColor=none;" vertex="1" parent="1">
          <mxGeometry x="540" y="60" width="60" height="30" as="geometry" />
        </mxCell>
        <mxCell id="H9HWOx3HG2p_Gk0_x6q3-34" value="gitee" style="text;html=1;align=center;verticalAlign=middle;resizable=0;points=[];autosize=1;strokeColor=none;fillColor=none;" vertex="1" parent="1">
          <mxGeometry x="325" y="60" width="50" height="30" as="geometry" />
        </mxCell>
        <mxCell id="H9HWOx3HG2p_Gk0_x6q3-35" value="任务" style="text;html=1;align=center;verticalAlign=middle;resizable=0;points=[];autosize=1;strokeColor=none;fillColor=none;" vertex="1" parent="1">
          <mxGeometry x="110" y="60" width="50" height="30" as="geometry" />
        </mxCell>
      </root>
    </mxGraphModel>
  </diagram>
</mxfile>
